<?xml version="1.0" encoding="UTF-8"?> <svg xmlns="http://www.w3.org/2000/svg" xmlns:xlink="http://www.w3.org/1999/xlink" width="56" height="57" viewBox="0 0 56 57"><defs><clipPath id="clip-path"><rect id="Rectangle_244" data-name="Rectangle 244" width="56" height="57" transform="translate(141 432)" fill="#fff" stroke="#707070" stroke-width="1"></rect></clipPath></defs><g id="Group_203" data-name="Group 203" transform="translate(-141 -432)"><g id="Mask_Group_15" data-name="Mask Group 15" clip-path="url(#clip-path)"><g id="Group_202" data-name="Group 202"><g id="Group_185" data-name="Group 185" transform="translate(-46.325 -1358.636)"><path id="Path_227" data-name="Path 227" d="M569.886,4436.98h8.146a2.589,2.589,0,0,1,2.589,2.589v8.146a2.589,2.589,0,0,1-2.589,2.589h-8.146a2.589,2.589,0,0,1-2.589-2.589v-8.146a2.589,2.589,0,0,1,2.589-2.589" transform="translate(-358.297 -2610.98)" fill="#fa87b6"></path><path id="Path_229" data-name="Path 229" d="M569.886,4436.98h8.146a2.589,2.589,0,0,1,2.589,2.589v8.146a2.589,2.589,0,0,1-2.589,2.589h-8.146a2.589,2.589,0,0,1-2.589-2.589v-8.146a2.589,2.589,0,0,1,2.589-2.589" transform="translate(-339.297 -2626.98)" fill="#7f92e2"></path><path id="Path_228" data-name="Path 228" d="M569.886,4436.98h8.146a2.589,2.589,0,0,1,2.589,2.589v8.146a2.589,2.589,0,0,1-2.589,2.589h-8.146a2.589,2.589,0,0,1-2.589-2.589v-8.146a2.589,2.589,0,0,1,2.589-2.589" transform="translate(-377.297 -2626.98)" fill="#ebf615"></path></g></g></g></g></svg> 